<?xml version="1.0" encoding="UTF-8" standalone="no"?>
<!DOCTYPE svg PUBLIC "-//W3C//DTD SVG 1.1//EN" "http://www.w3.org/Graphics/SVG/1.1/DTD/svg11.dtd">
<svg xmlns="http://www.w3.org/2000/svg" version="1.1" viewBox="0.00 0.00 470.00 166.00">
<path fill="#5663c6" fill-opacity="0.925" d="
  M 109.13 86.17
  A 44.08 44.08 0.0 0 1 65.05 130.25
  A 44.08 44.08 0.0 0 1 20.97 86.17
  A 44.08 44.08 0.0 0 1 65.05 42.09
  A 44.08 44.08 0.0 0 1 109.13 86.17
  Z
  M 58.31 115.89
  A 1.40 1.39 -44.9 0 1 58.32 113.11
  L 60.02 112.99
  Q 60.48 112.95 60.56 112.49
  C 61.56 106.63 69.11 106.89 69.66 112.52
  Q 69.71 113.04 70.23 113.04
  L 81.28 113.02
  A 1.36 1.36 0.0 0 0 82.20 112.66
  L 105.27 91.79
  A 2.08 2.07 -19.1 0 0 105.95 90.40
  C 106.82 78.19 103.15 67.00 94.78 58.04
  C 69.87 31.38 25.19 48.88 24.04 85.07
  C 23.49 102.22 34.43 118.57 50.35 124.51
  C 69.24 131.56 89.06 124.57 100.13 107.61
  Q 103.04 103.15 104.58 97.17
  Q 104.78 96.41 104.20 96.93
  L 83.52 115.59
  Q 83.07 116.00 82.46 116.00
  L 70.22 115.99
  Q 69.73 115.99 69.66 116.48
  C 68.77 122.25 61.18 122.06 60.54 116.51
  Q 60.49 116.05 60.03 116.02
  L 58.31 115.89
  Z
  M 65.1000 117.7700
  A 3.29 1.80 90.0 0 0 66.9000 114.4800
  A 3.29 1.80 90.0 0 0 65.1000 111.1900
  A 3.29 1.80 90.0 0 0 63.3000 114.4800
  A 3.29 1.80 90.0 0 0 65.1000 117.7700
  Z"
/>
<path fill="#121211" d="
  M 137.75 89.51
  L 137.75 105.25
  Q 137.75 105.76 137.25 105.76
  L 132.87 105.75
  Q 132.25 105.75 132.25 105.13
  L 132.25 56.51
  Q 132.25 56.03 132.73 56.02
  Q 142.18 55.96 151.53 55.99
  Q 158.07 56.02 160.73 57.37
  C 167.07 60.57 167.35 67.53 167.03 74.69
  C 166.54 85.60 162.27 88.95 151.82 88.96
  Q 145.05 88.97 138.25 89.00
  Q 137.75 89.01 137.75 89.51
  Z
  M 137.77 60.78
  L 137.73 84.16
  A 0.34 0.34 0.0 0 0 138.07 84.50
  L 153.85 84.53
  A 7.68 7.42 0.1 0 0 161.54 77.12
  L 161.56 67.90
  A 7.68 7.42 0.1 0 0 153.89 60.47
  L 138.11 60.44
  A 0.34 0.34 0.0 0 0 137.77 60.78
  Z"
/>
<path fill="#121211" d="
  M 181.23 94.71
  C 181.22 98.88 182.88 101.66 187.47 101.52
  Q 187.99 101.50 187.99 102.02
  L 187.97 105.19
  Q 187.97 105.72 187.44 105.73
  Q 180.54 105.89 177.56 100.80
  Q 176.26 98.59 176.26 94.45
  Q 176.24 75.47 176.26 56.53
  Q 176.26 56.00 176.78 56.00
  L 180.72 56.01
  Q 181.23 56.01 181.23 56.51
  Q 181.26 75.62 181.23 94.71
  Z"
/>
<path fill="#121211" d="
  M 274.27 101.26
  L 300.44 101.25
  A 0.31 0.31 0.0 0 1 300.75 101.56
  L 300.74 105.43
  A 0.31 0.31 0.0 0 1 300.43 105.74
  L 269.07 105.75
  A 0.31 0.31 0.0 0 1 268.76 105.44
  L 268.76 56.32
  A 0.31 0.31 0.0 0 1 269.07 56.01
  L 273.67 56.00
  A 0.31 0.31 0.0 0 1 273.98 56.31
  L 273.96 100.95
  A 0.31 0.31 0.0 0 0 274.27 101.26
  Z"
/>
<path fill="#121211" d="
  M 414.17 101.28
  C 411.55 104.97 408.77 106.37 404.10 106.56
  C 398.77 106.79 392.28 106.44 389.68 101.52
  Q 388.52 99.34 388.51 94.78
  Q 388.49 87.80 388.53 80.82
  C 388.57 72.70 392.40 69.63 400.13 69.53
  Q 406.69 69.45 413.23 69.52
  Q 413.77 69.53 413.77 69.00
  L 413.75 56.50
  Q 413.75 56.00 414.25 56.00
  L 418.13 56.02
  Q 418.74 56.02 418.74 56.63
  L 418.74 105.25
  Q 418.74 105.75 418.25 105.75
  L 416.07 105.74
  Q 415.40 105.73 415.33 105.07
  L 414.95 101.48
  Q 414.83 100.34 414.17 101.28
  Z
  M 413.33 96.47
  Q 413.76 95.69 413.76 94.79
  L 413.76 74.25
  Q 413.76 73.77 413.28 73.77
  Q 406.83 73.70 400.37 73.76
  C 395.86 73.80 393.17 75.60 393.17 80.25
  Q 393.19 88.26 393.48 96.23
  Q 393.68 101.84 399.25 102.19
  C 405.54 102.58 409.95 102.63 413.33 96.47
  Z"
/>
<path fill="#5663c6" fill-opacity="0.925" d="
  M 82.37 86.12
  A 17.24 17.24 0.0 0 1 65.13 103.36
  A 17.24 17.24 0.0 0 1 47.89 86.12
  A 17.24 17.24 0.0 0 1 65.13 68.88
  A 17.24 17.24 0.0 0 1 82.37 86.12
  Z
  M 79.28 86.11
  A 14.17 14.17 0.0 0 0 65.11 71.94
  A 14.17 14.17 0.0 0 0 50.94 86.11
  A 14.17 14.17 0.0 0 0 65.11 100.28
  A 14.17 14.17 0.0 0 0 79.28 86.11
  Z"
/>
<path fill="#121211" d="
  M 336.74 96.50
  A 9.96 9.96 0.0 0 1 326.78 106.46
  L 316.46 106.46
  A 9.96 9.96 0.0 0 1 306.50 96.50
  L 306.50 78.74
  A 9.96 9.96 0.0 0 1 316.46 68.78
  L 326.78 68.78
  A 9.96 9.96 0.0 0 1 336.74 78.74
  L 336.74 96.50
  Z
  M 331.76 78.65
  A 5.68 5.68 0.0 0 0 326.08 72.97
  L 317.16 72.97
  A 5.68 5.68 0.0 0 0 311.48 78.65
  L 311.48 96.57
  A 5.68 5.68 0.0 0 0 317.16 102.25
  L 326.08 102.25
  A 5.68 5.68 0.0 0 0 331.76 96.57
  L 331.76 78.65
  Z"
/>
<path fill="#121211" d="
  M 434.75 74.04
  C 437.76 68.27 443.26 68.58 449.53 68.81
  Q 449.99 68.83 449.99 69.29
  L 449.99 72.73
  Q 449.99 73.22 449.49 73.23
  C 444.01 73.33 439.56 72.55 436.15 77.52
  Q 434.94 79.27 434.95 82.27
  Q 435.00 93.71 434.96 105.14
  Q 434.95 105.75 434.34 105.75
  L 430.51 105.75
  Q 430.02 105.74 430.02 105.26
  L 430.02 70.68
  A 1.70 1.70 0.0 0 1 433.40 70.46
  L 433.86 73.88
  A 0.48 0.47 55.1 0 0 434.75 74.04
  Z"
/>
<path fill="#121211" d="
  M 216.87 101.12
  C 213.31 107.01 207.92 106.79 201.35 106.32
  C 189.87 105.49 188.48 89.98 197.37 85.65
  C 201.84 83.47 210.55 84.57 215.86 84.48
  Q 216.32 84.48 216.38 84.02
  C 217.04 79.10 216.39 73.83 210.36 73.78
  Q 202.97 73.72 195.59 73.75
  Q 195.04 73.76 195.03 73.21
  L 195.02 70.04
  Q 195.02 69.55 195.51 69.54
  Q 202.13 69.43 208.74 69.52
  C 216.82 69.62 221.24 72.14 221.24 80.54
  Q 221.24 92.80 221.23 105.05
  A 0.69 0.69 0.0 0 1 220.54 105.74
  L 218.73 105.75
  A 0.62 0.61 85.2 0 1 218.11 105.22
  L 217.55 101.26
  Q 217.40 100.24 216.87 101.12
  Z
  M 211.33 101.34
  Q 214.02 100.11 215.60 97.36
  C 216.96 94.98 216.55 92.02 216.49 89.27
  Q 216.48 88.74 215.95 88.74
  Q 210.22 88.75 204.45 88.72
  Q 200.51 88.70 198.84 90.07
  C 195.30 92.96 195.97 100.67 200.92 101.96
  C 203.43 102.61 208.63 102.59 211.33 101.34
  Z"
/>
<path fill="#121211" d="
  M 245.02 99.70
  L 255.02 70.02
  A 0.77 0.77 0.0 0 1 255.75 69.50
  L 259.54 69.51
  A 0.93 0.93 0.0 0 1 260.41 70.76
  Q 253.27 90.45 245.65 109.82
  Q 242.41 118.03 232.94 117.90
  Q 232.49 117.89 232.49 117.44
  L 232.50 114.27
  Q 232.51 113.75 233.03 113.71
  Q 240.52 113.21 241.83 105.81
  Q 241.90 105.44 241.76 105.08
  L 228.33 71.13
  A 1.19 1.18 -10.7 0 1 229.44 69.51
  L 232.84 69.51
  Q 233.49 69.51 233.70 70.11
  L 244.34 99.71
  A 0.36 0.36 0.0 0 0 245.02 99.70
  Z"
/>
<path fill="#121211" d="
  M 373.26 101.16
  C 370.97 104.62 368.32 106.14 364.04 106.51
  C 354.89 107.31 347.57 105.57 347.52 95.01
  Q 347.47 82.51 347.52 70.01
  Q 347.53 69.51 348.03 69.51
  L 351.98 69.50
  Q 352.49 69.50 352.49 70.01
  Q 352.51 83.09 352.50 96.15
  C 352.49 100.82 355.37 102.22 359.75 102.24
  C 364.84 102.27 368.56 102.45 371.57 97.87
  Q 372.78 96.04 372.77 92.81
  Q 372.73 81.42 372.77 70.01
  Q 372.77 69.50 373.28 69.51
  L 377.25 69.51
  Q 377.75 69.51 377.75 70.00
  L 377.75 105.26
  Q 377.75 105.77 377.23 105.76
  L 375.06 105.72
  A 0.75 0.74 -2.2 0 1 374.34 105.06
  L 373.93 101.32
  Q 373.82 100.31 373.26 101.16
  Z"
/>
<path fill="#5663c6" fill-opacity="0.925" d="
  M 74.52 86.13
  A 9.40 9.40 0.0 0 1 65.12 95.53
  A 9.40 9.40 0.0 0 1 55.72 86.13
  A 9.40 9.40 0.0 0 1 65.12 76.73
  A 9.40 9.40 0.0 0 1 74.52 86.13
  Z
  M 71.44 86.12
  A 6.33 6.33 0.0 0 0 65.11 79.79
  A 6.33 6.33 0.0 0 0 58.78 86.12
  A 6.33 6.33 0.0 0 0 65.11 92.45
  A 6.33 6.33 0.0 0 0 71.44 86.12
  Z"
/>
</svg>
